<svg version="1.1" xmlns="http://www.w3.org/2000/svg" width="28" height="28" viewBox="0 0 204.0942383 204.0942383">
<style>.st1{fill: #eee}</style>
  <path class="st1" fill-rule="evenodd" clip-rule="evenodd" fill="#E64A19" d="M15.8 143l75-75 11-11 11 11 55.4 55.4v.3l-1 3.2-1.4 3-1.4 3-1.5 3-1.5 2.5L102 79l-78.2 78c-3-4.4-5.8-9-8-14z"/>
  <path class="st1" fill-rule="evenodd" clip-rule="evenodd" fill="#474747" d="M102 6c52.7 0 95.8 43.2 95.8 96 0 53-43 96-96 96-28.8 0-54.8-12.8-72.4-33l3.4-3.5 2.5-2.5 2.4-2.4 2.5-2.5c15 17.5 37 28.7 61.7 28.7 44.3 0 80.5-36.2 80.5-80.6 0-44.3-36.2-80.5-80.6-80.5-44.5 0-80.7 36.2-80.7 80.6 0 6 .6 12 2 17.5l-5.5 5.4-7 7c-3.2-9.4-5-19.5-5-30C6 49.3 49 6 102 6z"/>
</svg>
