<svg version="1.1" xmlns="http://www.w3.org/2000/svg" viewBox="0 0 320 320">
<style>.st1{fill: #f60}</style>
<g>
	<path class="st1" d="M159.4,59c33.8,23.7,67.2,47.2,101.3,71.1c-5.9,8.5-11.4,16.3-17.1,24.6c-5.9-3.9-11.3-7.6-18-12c-0.4,3.6-1,6.2-1,8.9
		c0,15.6,0.2,31.3,0.3,46.9c0,0.5-0.3,0.9-0.7,2.1c-9.4,3-19.3,1.1-30,1.4c0-27.5,0-54.4,0-81.3c-11.8-8.4-23-16.3-34.7-24.6
		c-6.3,4.4-12.6,8.7-18.8,13c-3.7,2.6-7.2,5.5-11,7.8c-3.3,2.1-4.7,4.6-4.7,8.6c0.2,19-0.5,38,0.2,57c0.9,25.1,9.5,38.4,35.3,45.3
		c4.8,1.3,9.8,2.3,14.7,2.9c16,1.9,32.2,2.8,48.2,0.1c31.8-5.3,51.4-24.8,56.2-56.6c4.2-27.8,0.4-55.3-11.8-80.9
		c-9.4-19.6-24.5-33.7-44.7-42.3c-16.7-7.2-34.2-9.5-52.1-9.8c-19.4-0.3-38.6,0.7-57.4,5.6c-37.9,9.9-60.1,34.7-68.2,72.4
		c-2.8,12.9-4.8,26.3-4.9,39.5c-0.1,27.5,3.6,54.5,19.5,78.2c11.5,17.1,27.3,28.4,46.5,35.3c16.4,6,33.4,9,50.9,8.8
		c5.2,0,10.5,0.9,16.2,1.4c0,9.8,0,19.2,0,29.7c-5.4,0-10.4,0.4-15.2-0.1c-13.4-1.4-26.9-2.3-40-5.1c-36-7.6-65.7-25.2-85.9-56.7
		C20.7,232,14.6,211.9,12,190.6c-1.2-10-2.2-20.2-2-30.3c0.8-32.3,5.3-63.9,23.2-91.7C49.9,42.6,73.9,26.3,103.4,18
		c16.3-4.6,32.9-6.4,49.7-7.3c23.2-1.2,45.9,0.4,68,7.3c31.9,9.9,56.7,28.8,72.4,58.8c11.8,22.5,16.4,46.5,17.7,71.6
		c0.9,17-0.5,33.6-6.3,49.6c-10.9,29.8-31.3,49.7-61.8,59.1c-20.8,6.4-42.1,5.7-63.4,4.2c-14.5-1-28.6-3.9-42.1-9.7
		c-24.5-10.6-38.4-29.2-41.5-55.5c-1.3-11.2-0.8-22.6-1.2-33.9c-0.2-6.3-0.8-12.5-1.3-19.9c-6.3,4.3-11.9,8.1-18.2,12.4
		c-5.8-8-11.4-15.9-17.6-24.5C91.7,106.4,125.2,82.9,159.4,59z"/>
	<path class="st1" d="M250.1,282.3c5.9,0,10.9,0,16.5,0c0,9.5,0,18.9,0,29.1c-5.4,0-10.4,0-16.5,0C250.1,302,250.1,292.6,250.1,282.3z"/>
	<path class="st1" d="M219.4,282.4c5.7,0,10.7,0,16.2,0c0,9.7,0,18.9,0,28.4c-5.3,0-10.5,0-16.2,0C219.4,301.5,219.4,292.4,219.4,282.4z"/>
	<path class="st1" d="M188.4,282c5.2,0,10,0,15.4,0c1.9,9.9,1.8,19.1,0.2,28.7c-5.5,0-10.2,0-15.6,0C188.4,301.5,188.4,292.2,188.4,282z"/>
</g>
</svg>